<svg height="512pt" viewBox="0 -76 512.00555 512" width="512pt" xmlns="http://www.w3.org/2000/svg"><path d="m499.800781 188.632812c-13.5625 12.722657-27.867187 24.632813-42.835937 35.667969-45.996094 34.046875-118.871094 75.433594-200.960938 75.433594s-155.050781-41.46875-201.046875-75.433594c-14.925781-11.054687-29.199219-22.964843-42.75-35.667969-2.328125-2.160156-3.648437-5.191406-3.648437-8.363281s1.320312-6.203125 3.648437-8.363281c15.355469-14.414062 31.664063-27.785156 48.808594-40.019531 46.25-33.109375 116.394531-71.082031 194.988281-71.082031 84.480469 0 159.230469 43.859374 204.96875 78.503906 13.542969 10.132812 26.503906 21.015625 38.828125 32.597656 2.324219 2.160156 3.648438 5.191406 3.648438 8.363281s-1.324219 6.203125-3.648438 8.363281zm0 0" fill="#e3e7f2"/><path d="m456.964844 224.300781c-17.21875 12.820313-35.328125 24.394531-54.1875 34.644531-44.800782 25.519532-95.230469 39.535157-146.773438 40.789063-82.089844 0-155.050781-41.46875-201.046875-75.433594.210938-30.898437 2.234375-61.753906 6.058594-92.414062 46.25-33.109375 116.394531-71.082031 194.988281-71.082031 66.902344 0 122.195313 26.453124 165.035156 54.695312 11.261719 7.339844 21.671876 14.847656 31.230469 22.101562 17.066407 25.601563 8.535157 68.269532 4.695313 86.699219zm0 0" fill="#a4c2f7"/><path d="m422.828125 237.785156c-6.226563 6.910156-12.882813 13.992188-20.050781 21.160156-44.800782 25.519532-95.230469 39.535157-146.773438 40.789063-82.089844 0-155.050781-41.46875-201.046875-75.433594.210938-30.898437 2.234375-61.753906 6.058594-92.414062 46.25-33.109375 116.394531-71.082031 194.988281-71.082031 66.902344 0 122.195313 26.453124 165.035156 54.695312 13.054688 38.742188 5.375 96.429688 1.789063 122.285156zm0 0" fill="#f5f5f5"/><path d="m401.070312 180.269531c0 70.65625-64.9375 128-145.066406 128-4.351562 0-8.621094-.171875-12.800781-.511719-74.15625-5.71875-132.265625-60.671874-132.265625-127.488281 0-66.816406 58.109375-121.769531 132.265625-127.488281 4.179687-.339844 8.449219-.511719 12.800781-.511719 80.128906 0 145.066406 57.34375 145.066406 128zm0 0" fill="#a4c2f7"/><path d="m375.46875 180.269531c0-70.410156-59.214844-127.488281-132.265625-127.488281-73.046875 0-132.265625 57.078125-132.265625 127.488281 0 70.410157 59.21875 127.488281 132.265625 127.488281 73.050781 0 132.265625-57.078124 132.265625-127.488281zm0 0" fill="#e3e7f2"/><path d="m206.289062 176.855469v-44.003907c31.109376-16.417968 68.320313-16.417968 99.429688 0v44.003907c.074219 21.203125-9.628906 41.257812-26.300781 54.359375l-21.332031 16.628906c-1.207032.949219-2.90625.949219-4.113282 0l-21.332031-16.628906c-16.691406-13.09375-26.414063-33.148438-26.351563-54.359375zm0 0" fill="#e3e7f2"/><path d="m69.550781 131.886719c-17.148437 12.234375-33.453125 25.605469-48.8125 40.019531-2.324219 2.160156-3.648437 5.191406-3.648437 8.363281s1.324218 6.203125 3.648437 8.363281c13.554688 12.703126 27.828125 24.613282 42.753907 35.667969 36.800781 27.742188 78.007812 49.089844 121.898437 63.148438 19.414063 11.152343 33.449219 9.898437 57.8125 11.773437 4.179687.34375 8.449219.511719 12.800781.511719 4.199219 0 8.328125-.246094 12.441406-.554687-24.226562-1.917969-38.136718-.636719-57.457031-11.765626-43.886719-14.058593-85.097656-35.40625-121.898437-63.148437-14.925782-11.054687-29.199219-22.964844-42.75-35.667969-2.328125-2.160156-3.648438-5.1875-3.648438-8.363281 0-3.171875 1.320313-6.203125 3.648438-8.363281 15.355468-14.414063 31.664062-27.785156 48.808594-40.019532 35.207031-25.707031 74.335937-45.554687 115.875-58.777343 19.304687-11.09375 33.203124-9.832031 57.421874-11.75-4.113281-.273438-8.242187-.519531-12.441406-.519531-4.351562 0-8.621094.167968-12.800781.511718-24.355469 1.875-38.398437.613282-57.777344 11.792969-41.539062 13.222656-80.667969 33.070313-115.875 58.777344zm0 0" fill="#fff"/><path d="m8.535156 129.070312c-3.496094 0-6.636718-2.132812-7.929687-5.378906-1.292969-3.25-.472657-6.957031 2.070312-9.359375 20.214844-19.089843 127.382813-114.32812475 253.328125-114.32812475 4.710938 0 8.53125 3.82031275 8.53125 8.53124975 0 4.714844-3.820312 8.535156-8.53125 8.535156-119.46875 0-222.226562 91.355469-241.605468 109.667969-1.585938 1.5-3.683594 2.332031-5.863282 2.332031zm0 0" fill="#428dff"/><path d="m456.613281 231.46875c-.574219.003906-1.144531-.054688-1.707031-.171875-4.621094-.921875-7.617188-5.414063-6.699219-10.035156 5.359375-27.066407 5.359375-54.917969 0-81.988281-.847656-4.585938 2.144531-9.003907 6.71875-9.917969 4.574219-.914063 9.035157 2.011719 10.015625 6.574219 5.804688 29.273437 5.804688 59.402343 0 88.679687-.792968 3.972656-4.273437 6.839844-8.328125 6.859375zm0 0" fill="#428dff"/><path d="m59.738281 231.46875c-4.054687-.003906-7.546875-2.855469-8.355469-6.824219-5.804687-29.277343-5.804687-59.40625 0-88.679687.503907-3.078125 2.652344-5.632813 5.59375-6.667969 2.941407-1.03125 6.214844-.378906 8.53125 1.707031 2.320313 2.085938 3.316407 5.269532 2.601563 8.304688-5.351563 27.070312-5.351563 54.921875 0 81.988281.898437 4.597656-2.074219 9.0625-6.664063 10-.5625.117187-1.136718.175781-1.707031.171875zm0 0" fill="#428dff"/><path d="m256.003906 308.269531c-120.320312 0-221.515625-86.800781-249.667968-113.398437-4.039063-3.78125-6.33203175-9.066406-6.33203175-14.597656s2.29296875-10.816407 6.33203175-14.597657c28.152343-26.605469 129.347656-113.40625 249.667968-113.40625 120.320313 0 221.515625 86.800781 249.667969 113.398438 4.039063 3.777343 6.332031 9.0625 6.332031 14.59375s-2.292968 10.8125-6.332031 14.589843c-28.152344 26.617188-129.347656 113.417969-249.667969 113.417969zm0-238.933593c-113.996094 0-210.953125 83.226562-237.953125 108.742187-.621093.558594-.980469 1.355469-.980469 2.191406 0 .835938.359376 1.632813.980469 2.191407 27 25.515624 123.957031 108.742187 237.953125 108.742187s210.953125-83.226563 237.953125-108.742187c.621094-.558594.976563-1.355469.976563-2.191407 0-.835937-.355469-1.632812-.976563-2.191406-27-25.515625-123.957031-108.742187-237.953125-108.742187zm0 0" fill="#428dff"/><path d="m256.003906 17.070312c-35.984375.695313-71.523437 8.089844-104.796875 21.808594-50.46875 20.925782-96.800781 50.691406-136.808593 87.894532l-11.722657-12.441407c20.773438-19.242187 43.195313-36.628906 67.003907-51.960937 23.738281-15.503906 48.917968-28.679688 75.195312-39.335938 35.285156-14.523437 72.976562-22.335937 111.128906-23.03124975zm0 0" fill="#fff"/><g fill="#428dff"><path d="m213.53125 12.164062c.765625 4.597657 4.960938 7.816407 9.601562 7.363282 10.898438-1.457032 21.875-2.277344 32.871094-2.457032v-17.06640575c-11.757812.18359375-23.496094 1.05859375-35.148437 2.61718775-2.261719.238281-4.328125 1.394531-5.710938 3.199218-1.386719 1.800782-1.96875 4.097657-1.613281 6.34375zm0 0"/><path d="m2.675781 114.332031 11.722657 12.40625c40.007812-37.203125 86.339843-66.96875 136.808593-87.890625 2.558594-1.085937 5.117188-2.160156 7.753907-3.011718 2.859374-1.070313 4.929687-3.578126 5.4375-6.589844.503906-3.007813-.632813-6.058594-2.988282-8-2.351562-1.941406-5.5625-2.480469-8.421875-1.410156-2.78125.910156-5.460937 2.027343-8.140625 3.164062-26.273437 10.65625-51.457031 23.832031-75.195312 39.339844-23.800782 15.34375-46.210938 32.738281-66.976563 51.992187zm0 0"/><path d="m190.65625 25.859375c2.09375-.675781 3.894531-2.039063 5.117188-3.867187l.691406-1.441407c.203125-.53125.335937-1.089843.394531-1.65625.128906-.523437.179687-1.0625.152344-1.601562-.035157-.574219-.105469-1.144531-.210938-1.707031-.542969-2.222657-1.914062-4.152344-3.832031-5.394532-.984375-.597656-2.085938-.980468-3.226562-1.117187-3.484376-.351563-6.863282 1.320312-8.695313 4.308593-1.054687 2-1.328125 4.320313-.757813 6.511719.660157 2.152344 2.085938 3.988281 4.007813 5.164063 1.941406 1.066406 4.214844 1.355468 6.359375.800781zm0 0"/><path d="m503.46875 129.070312c-2.179688 0-4.277344-.832031-5.859375-2.332031-19.382813-18.3125-122.140625-109.667969-241.605469-109.667969-4.714844 0-8.535156-3.820312-8.535156-8.535156 0-4.710937 3.820312-8.53124975 8.535156-8.53124975 125.941406 0 233.113282 95.23828175 253.328125 114.34374975 2.53125 2.40625 3.339844 6.105469 2.050781 9.347656-1.289062 3.238282-4.425781 5.367188-7.914062 5.375zm0 0"/><path d="m256.003906 360.535156c-125.945312 0-233.113281-95.238281-253.328125-114.347656-3.425781-3.234375-3.582031-8.636719-.34375-12.0625 3.238281-3.429688 8.640625-3.582031 12.066407-.34375 19.378906 18.332031 122.136718 109.6875 241.605468 109.6875 119.464844 0 222.222656-91.355469 241.605469-109.667969 3.425781-3.238281 8.828125-3.085937 12.0625.339844 3.238281 3.425781 3.085937 8.828125-.339844 12.066406-20.214843 19.089844-127.386719 114.328125-253.328125 114.328125zm0 0"/><path d="m349.871094 291.332031c-3.675782 0-6.933594-2.351562-8.097656-5.835937-1.160157-3.484375.039062-7.320313 2.976562-9.523438 30.082031-22.578125 47.800781-57.988281 47.828125-95.601562.03125-37.613282-17.628906-73.050782-47.675781-95.675782-3.769532-2.828124-4.53125-8.175781-1.707032-11.945312 2.828126-3.769531 8.179688-4.535156 11.949219-1.707031 34.324219 25.859375 54.5 66.347656 54.464844 109.324219-.035156 42.976562-20.269531 83.4375-54.636719 109.238281-1.46875 1.113281-3.261718 1.714843-5.101562 1.726562zm0 0"/><path d="m162.136719 291.671875c-1.847657.003906-3.644531-.59375-5.121094-1.707031-34.351563-25.84375-54.609375-66.289063-54.738281-109.277344-.128906-42.984375 19.886718-83.550781 54.082031-109.601562 2.429687-1.84375 5.664063-2.253907 8.476563-1.070313s4.78125 3.777344 5.160156 6.808594c.382812 3.027343-.878906 6.027343-3.3125 7.871093-29.9375 22.804688-47.460938 58.316407-47.347656 95.949219.113281 37.636719 17.847656 73.042969 47.921874 95.667969 2.9375 2.203125 4.136719 6.039062 2.972657 9.523438-1.160157 3.484374-4.421875 5.835937-8.09375 5.835937zm0 0"/><path d="m256.003906 257.070312c-2.652344-.011718-5.226562-.914062-7.304687-2.5625l-21.332031-16.621093c-18.683594-14.746094-29.59375-37.230469-29.613282-61.03125v-44.003907c.003906-3.046874 1.628906-5.859374 4.269532-7.382812 33.753906-17.953125 74.222656-17.953125 107.980468 0 2.636719 1.523438 4.261719 4.335938 4.265625 7.382812v44.003907c.003907 23.820312-10.902343 46.328125-29.59375 61.089843l-21.332031 16.632813c-2.097656 1.632813-4.683594 2.507813-7.339844 2.492187zm-41.199218-118.929687v38.714844c-.015626 18.566406 8.476562 36.113281 23.039062 47.625l18.160156 14.132812 18.175782-14.148437c14.5625-11.511719 23.054687-29.0625 23.039062-47.625v-38.707032c-26.125-12.078124-56.238281-12.078124-82.363281 0zm0 0"/></g></svg>